<?xml version="1.0" encoding="utf-8"?>
<!-- Generator: Adobe Illustrator 22.1.0, SVG Export Plug-In . SVG Version: 6.00 Build 0)  -->
<svg version="1.1" id="Layer_1" xmlns="http://www.w3.org/2000/svg" xmlns:xlink="http://www.w3.org/1999/xlink" x="0px" y="0px"
	 viewBox="0 0 71 54.1" style="enable-background:new 0 0 71 54.1;" xml:space="preserve">
<style type="text/css">
	.st0{enable-background:new    ;}
	.st1{fill:#231F20;}
</style>
<title>CV</title>
<g class="st0">
	<path class="st1" d="M10.2,39.2c-2.4-1.4-4.3-3.4-5.6-6c-1.3-2.6-2-5.7-2-9.2c0-3.5,0.7-6.6,2-9.2c1.3-2.6,3.2-4.6,5.6-6
		c2.4-1.4,5.3-2.1,8.6-2.1c2.1,0,4.1,0.3,6,0.9c1.9,0.6,3.5,1.5,4.9,2.7c0.4,0.3,0.7,0.7,0.9,1c0.2,0.4,0.2,0.8,0.2,1.3
		c0,0.7-0.2,1.3-0.6,1.8c-0.4,0.5-0.8,0.7-1.4,0.7c-0.6,0-1.3-0.2-2-0.7c-1.4-1-2.7-1.7-3.8-2.1c-1.2-0.4-2.5-0.6-3.9-0.6
		c-3.3,0-5.8,1-7.6,3.1c-1.7,2.1-2.6,5.1-2.6,9.2c0,4.1,0.9,7.1,2.6,9.2c1.7,2.1,4.2,3.1,7.6,3.1c1.4,0,2.6-0.2,3.8-0.6
		c1.2-0.4,2.5-1.1,4-2.1c0.3-0.2,0.6-0.4,1-0.5c0.3-0.1,0.7-0.2,1-0.2c0.5,0,1,0.2,1.4,0.7c0.4,0.5,0.6,1.1,0.6,1.8
		c0,0.5-0.1,0.9-0.2,1.3c-0.2,0.4-0.4,0.7-0.9,1c-1.4,1.2-3.1,2.1-4.9,2.7c-1.9,0.6-3.8,0.9-6,0.9C15.5,41.4,12.6,40.6,10.2,39.2z"
		/>
</g>
<g class="st0">
	<path class="st1" d="M65.2,6.8c0.8,0,1.5,0.3,2.2,0.8c0.6,0.5,1,1.2,1,1.9c0,0.4-0.1,0.8-0.3,1.2L54.7,39.3
		c-0.3,0.6-0.7,1.1-1.3,1.4c-0.6,0.3-1.2,0.5-1.9,0.5s-1.3-0.2-1.9-0.5c-0.6-0.3-1-0.8-1.3-1.4L35,10.7c-0.2-0.4-0.3-0.8-0.3-1.2
		c0-0.8,0.3-1.5,1-2C36.4,7,37.1,6.8,38,6.8c0.5,0,1,0.1,1.5,0.4c0.5,0.3,0.8,0.7,1.1,1.2l11,24.5l11-24.5C63.2,7.3,64,6.8,65.2,6.8
		z"/>
</g>
</svg>
